<svg xmlns="http://www.w3.org/2000/svg" xmlns:xlink="http://www.w3.org/1999/xlink" zoomAndPan="magnify" preserveAspectRatio="xMidYMid meet" version="1.0" viewBox="9 64.3 360.03 246.7"><defs><g/><clipPath id="d87f608380"><path d="M 9 64.296875 L 304.382812 64.296875 L 304.382812 311 L 9 311 Z M 9 64.296875 " clip-rule="nonzero"/></clipPath></defs><path fill="#004aad" d="M 163.722656 141.730469 L 176.460938 141.730469 L 176.460938 128.601562 C 176.582031 128.601562 164.324219 129.324219 163.722656 141.730469 Z M 163.722656 141.730469 " fill-opacity="1" fill-rule="nonzero"/><path fill="#004aad" d="M 163.722656 144.859375 L 176.582031 144.859375 L 176.582031 157.867188 L 163.722656 157.867188 Z M 163.722656 144.859375 " fill-opacity="1" fill-rule="nonzero"/><path fill="#004aad" d="M 178.984375 128.601562 L 178.984375 141.730469 L 191.722656 141.730469 C 191.242188 129.324219 178.984375 128.601562 178.984375 128.601562 Z M 178.984375 128.601562 " fill-opacity="1" fill-rule="nonzero"/><path fill="#004aad" d="M 178.984375 144.859375 L 191.84375 144.859375 L 191.84375 157.867188 L 178.984375 157.867188 Z M 178.984375 144.859375 " fill-opacity="1" fill-rule="nonzero"/><g clip-path="url(#d87f608380)"><path fill="#004aad" d="M 180.066406 64.296875 L 146.054688 106.445312 L 146.054688 90.550781 L 133.4375 90.550781 L 133.4375 122.101562 L 98.105469 165.8125 L 177.664062 107.527344 L 286.183594 188.332031 C 187.398438 157.625 63.734375 173.882812 22.996094 219.402344 C -23.394531 274.679688 61.089844 310.925781 61.089844 310.925781 C 23.355469 278.050781 24.917969 245.898438 46.910156 224.460938 C 79.597656 194.355469 119.015625 188.332031 138.363281 184.480469 C 221.527344 170.027344 284.140625 191.222656 296.515625 195.921875 L 297.238281 196.402344 C 143.414062 158.710938 75.390625 215.308594 75.390625 215.308594 C 189.320312 165.8125 304.089844 201.699219 304.089844 201.699219 Z M 180.066406 64.296875 " fill-opacity="1" fill-rule="nonzero"/></g><g fill="#ffffff" fill-opacity="1"><g transform="translate(66.470201, 262.786432)"><g><path d="M 3.171875 -29.417969 L 3.988281 -28.515625 L 3.945312 -3 C 3.945312 -1.585938 3.300781 -0.859375 2.273438 -0.859375 L 2.273438 0 L 6.902344 0 L 6.902344 -0.859375 C 5.875 -0.859375 5.230469 -1.585938 5.230469 -3 L 5.101562 -27.273438 L 29.160156 0 L 30.019531 0 L 30.320312 -29.460938 C 30.445312 -30.703125 31.046875 -31.304688 32.035156 -31.304688 L 32.035156 -32.164062 L 27.402344 -32.164062 L 27.402344 -31.304688 C 28.429688 -31.304688 29.074219 -30.574219 29.074219 -29.160156 L 29.117188 -6.519531 L 6.089844 -32.121094 L -0.171875 -32.121094 L -0.171875 -31.304688 C 0.902344 -31.304688 1.972656 -30.660156 3.171875 -29.417969 Z M 3.171875 -29.417969 "/></g></g></g><g fill="#ffffff" fill-opacity="1"><g transform="translate(106.301984, 262.786432)"><g><path d="M 31.949219 0 L 31.949219 -1.070312 L 31.605469 -1.070312 C 30.574219 -1.070312 29.117188 -2.875 28.175781 -5.359375 L 18.269531 -30.875 C 18.269531 -30.875 17.710938 -33.019531 17.453125 -33.019531 L 17.023438 -33.019531 C 17.195312 -32.035156 15.910156 -31.132812 13.980469 -30.875 L 14.152344 -30.445312 L 4.71875 -5.359375 C 3.773438 -2.875 1.757812 -1.070312 -0.128906 -1.070312 L -0.730469 -1.070312 L -0.730469 0 L 6.820312 0 L 6.820312 -1.070312 L 6.304688 -1.070312 C 4.632812 -1.070312 4.074219 -2.875 5.015625 -5.359375 L 7.71875 -12.566406 L 20.96875 -12.566406 C 21.871094 -10.164062 22.8125 -7.71875 23.671875 -5.359375 C 24.613281 -2.875 24.101562 -1.070312 22.429688 -1.070312 L 21.914062 -1.070312 L 21.914062 0 Z M 7.804688 -12.863281 L 14.238281 -30.148438 L 20.796875 -12.863281 Z M 7.804688 -12.863281 "/></g></g></g><g fill="#ffffff" fill-opacity="1"><g transform="translate(143.903953, 262.786432)"><g><path d="M 27.273438 0 L 34.90625 0 L 34.90625 -0.859375 C 33.878906 -0.859375 33.234375 -1.585938 33.234375 -3 L 33.234375 -29.160156 C 33.234375 -30.574219 33.878906 -31.304688 34.90625 -31.304688 L 34.90625 -32.164062 L 27.273438 -32.164062 L 27.273438 -31.304688 C 28.304688 -31.304688 28.945312 -30.574219 28.945312 -29.160156 L 28.945312 -16.722656 L 10.078125 -16.722656 L 10.078125 -29.160156 C 10.078125 -30.574219 10.722656 -31.304688 11.75 -31.304688 L 11.75 -32.164062 L 4.117188 -32.164062 L 4.117188 -31.304688 C 5.144531 -31.304688 5.789062 -30.574219 5.789062 -29.160156 L 5.789062 -3 C 5.789062 -1.585938 5.144531 -0.859375 4.117188 -0.859375 L 4.117188 0 L 11.75 0 L 11.75 -0.859375 C 10.722656 -0.859375 10.078125 -1.585938 10.078125 -3 L 10.078125 -16.425781 L 28.945312 -16.425781 L 28.945312 -3 C 28.945312 -1.585938 28.304688 -0.859375 27.273438 -0.859375 Z M 27.273438 0 "/></g></g></g><g fill="#ffffff" fill-opacity="1"><g transform="translate(186.65165, 262.786432)"><g><path d="M 31.949219 0 L 31.949219 -1.070312 L 31.605469 -1.070312 C 30.574219 -1.070312 29.117188 -2.875 28.175781 -5.359375 L 18.269531 -30.875 C 18.269531 -30.875 17.710938 -33.019531 17.453125 -33.019531 L 17.023438 -33.019531 C 17.195312 -32.035156 15.910156 -31.132812 13.980469 -30.875 L 14.152344 -30.445312 L 4.71875 -5.359375 C 3.773438 -2.875 1.757812 -1.070312 -0.128906 -1.070312 L -0.730469 -1.070312 L -0.730469 0 L 6.820312 0 L 6.820312 -1.070312 L 6.304688 -1.070312 C 4.632812 -1.070312 4.074219 -2.875 5.015625 -5.359375 L 7.71875 -12.566406 L 20.96875 -12.566406 C 21.871094 -10.164062 22.8125 -7.71875 23.671875 -5.359375 C 24.613281 -2.875 24.101562 -1.070312 22.429688 -1.070312 L 21.914062 -1.070312 L 21.914062 0 Z M 7.804688 -12.863281 L 14.238281 -30.148438 L 20.796875 -12.863281 Z M 7.804688 -12.863281 "/></g></g></g><g fill="#ffffff" fill-opacity="1"><g transform="translate(224.253615, 262.786432)"><g><path d="M 2.574219 -31.304688 C 3.601562 -31.304688 4.246094 -30.574219 4.246094 -29.160156 L 4.246094 -3 C 4.246094 -1.585938 3.601562 -0.859375 2.574219 -0.859375 L 2.574219 0 L 10.207031 0 L 10.207031 -0.859375 C 9.175781 -0.859375 8.535156 -1.585938 8.535156 -3 L 8.535156 -15.222656 L 16.640625 -15.222656 C 17.496094 -13.59375 20.414062 -9.003906 24.1875 -3.429688 C 26.332031 -0.257812 27.058594 0 34.476562 0 L 34.476562 -0.859375 C 31.175781 -0.859375 30.789062 -1.027344 29.203125 -3.429688 C 25.386719 -9.132812 22.34375 -13.679688 21.054688 -15.566406 C 25.816406 -16.46875 28.988281 -18.953125 28.988281 -23.070312 C 28.988281 -28.347656 23.886719 -32.164062 16.851562 -32.164062 L 2.617188 -32.164062 Z M 8.578125 -31.304688 L 15.566406 -31.304688 C 20.582031 -31.304688 24.230469 -28.21875 24.230469 -23.929688 C 24.230469 -18.824219 21.140625 -16.296875 16.851562 -16.296875 L 8.578125 -16.296875 Z M 8.578125 -31.304688 "/></g></g></g><g fill="#ffffff" fill-opacity="1"><g transform="translate(71.410509, 298.353993)"><g><path d="M 7.9375 -13.890625 C 8.914062 -13.890625 9.867188 -13.703125 10.796875 -13.328125 C 11.722656 -12.953125 12.519531 -12.425781 13.1875 -11.75 L 11.828125 -10.046875 C 11.328125 -10.585938 10.734375 -11.015625 10.046875 -11.328125 C 9.367188 -11.648438 8.679688 -11.8125 7.984375 -11.8125 C 6.597656 -11.8125 5.425781 -11.335938 4.46875 -10.390625 C 3.519531 -9.453125 3.046875 -8.304688 3.046875 -6.953125 C 3.046875 -5.578125 3.519531 -4.421875 4.46875 -3.484375 C 5.425781 -2.546875 6.597656 -2.078125 7.984375 -2.078125 C 9.410156 -2.078125 10.691406 -2.625 11.828125 -3.71875 L 13.21875 -2.171875 C 12.5 -1.472656 11.664062 -0.921875 10.71875 -0.515625 C 9.769531 -0.109375 8.816406 0.09375 7.859375 0.09375 C 5.828125 0.09375 4.117188 -0.578125 2.734375 -1.921875 C 1.359375 -3.273438 0.671875 -4.945312 0.671875 -6.9375 C 0.671875 -8.894531 1.367188 -10.539062 2.765625 -11.875 C 4.171875 -13.21875 5.894531 -13.890625 7.9375 -13.890625 Z M 7.9375 -13.890625 "/></g></g></g><g fill="#ffffff" fill-opacity="1"><g transform="translate(89.323373, 298.353993)"><g><path d="M 2.78125 -11.875 C 4.1875 -13.21875 5.921875 -13.890625 7.984375 -13.890625 C 10.054688 -13.890625 11.796875 -13.21875 13.203125 -11.875 C 14.617188 -10.539062 15.328125 -8.882812 15.328125 -6.90625 C 15.328125 -4.9375 14.617188 -3.273438 13.203125 -1.921875 C 11.796875 -0.578125 10.054688 0.09375 7.984375 0.09375 C 5.921875 0.09375 4.1875 -0.578125 2.78125 -1.921875 C 1.375 -3.273438 0.671875 -4.9375 0.671875 -6.90625 C 0.671875 -8.882812 1.375 -10.539062 2.78125 -11.875 Z M 8.015625 -11.796875 C 6.648438 -11.796875 5.476562 -11.320312 4.5 -10.375 C 3.53125 -9.4375 3.046875 -8.28125 3.046875 -6.90625 C 3.046875 -5.539062 3.535156 -4.378906 4.515625 -3.421875 C 5.492188 -2.472656 6.660156 -2 8.015625 -2 C 9.367188 -2 10.523438 -2.472656 11.484375 -3.421875 C 12.453125 -4.378906 12.9375 -5.539062 12.9375 -6.90625 C 12.9375 -8.28125 12.453125 -9.4375 11.484375 -10.375 C 10.523438 -11.320312 9.367188 -11.796875 8.015625 -11.796875 Z M 8.015625 -11.796875 "/></g></g></g><g fill="#ffffff" fill-opacity="1"><g transform="translate(109.467537, 298.353993)"><g><path d="M 13.8125 0 L 11.515625 0 L 4.140625 -9.921875 L 4.140625 0 L 1.8125 0 L 1.8125 -13.828125 L 4.109375 -13.828125 L 11.515625 -3.890625 L 11.515625 -13.828125 L 13.8125 -13.828125 Z M 13.8125 0 "/></g></g></g><g fill="#ffffff" fill-opacity="1"><g transform="translate(129.256282, 298.353993)"><g><path d="M 6.359375 -13.921875 C 8.148438 -13.921875 9.765625 -13.445312 11.203125 -12.5 L 10.234375 -10.453125 C 8.828125 -11.304688 7.476562 -11.734375 6.1875 -11.734375 C 5.488281 -11.734375 4.9375 -11.609375 4.53125 -11.359375 C 4.132812 -11.109375 3.9375 -10.75 3.9375 -10.28125 C 3.9375 -9.820312 4.117188 -9.429688 4.484375 -9.109375 C 4.847656 -8.785156 5.304688 -8.546875 5.859375 -8.390625 C 6.410156 -8.242188 7.007812 -8.054688 7.65625 -7.828125 C 8.300781 -7.597656 8.898438 -7.351562 9.453125 -7.09375 C 10.015625 -6.84375 10.472656 -6.441406 10.828125 -5.890625 C 11.191406 -5.347656 11.375 -4.6875 11.375 -3.90625 C 11.375 -2.695312 10.890625 -1.726562 9.921875 -1 C 8.953125 -0.28125 7.695312 0.078125 6.15625 0.078125 C 5.101562 0.078125 4.082031 -0.117188 3.09375 -0.515625 C 2.113281 -0.910156 1.253906 -1.441406 0.515625 -2.109375 L 1.515625 -4.125 C 2.210938 -3.476562 2.976562 -2.976562 3.8125 -2.625 C 4.65625 -2.28125 5.453125 -2.109375 6.203125 -2.109375 C 7.015625 -2.109375 7.644531 -2.253906 8.09375 -2.546875 C 8.550781 -2.847656 8.78125 -3.265625 8.78125 -3.796875 C 8.78125 -4.265625 8.597656 -4.660156 8.234375 -4.984375 C 7.867188 -5.304688 7.410156 -5.539062 6.859375 -5.6875 C 6.304688 -5.84375 5.707031 -6.03125 5.0625 -6.25 C 4.414062 -6.46875 3.8125 -6.695312 3.25 -6.9375 C 2.695312 -7.1875 2.238281 -7.578125 1.875 -8.109375 C 1.507812 -8.648438 1.328125 -9.304688 1.328125 -10.078125 C 1.328125 -11.242188 1.785156 -12.175781 2.703125 -12.875 C 3.628906 -13.570312 4.847656 -13.921875 6.359375 -13.921875 Z M 6.359375 -13.921875 "/></g></g></g><g fill="#ffffff" fill-opacity="1"><g transform="translate(145.688189, 298.353993)"><g><path d="M 11.25 -11.734375 L 6.875 -11.734375 L 6.875 0 L 4.546875 0 L 4.546875 -11.734375 L 0.171875 -11.734375 L 0.171875 -13.828125 L 11.25 -13.828125 Z M 11.25 -11.734375 "/></g></g></g><g fill="#ffffff" fill-opacity="1"><g transform="translate(161.271013, 298.353993)"><g><path d="M 10.59375 0 L 8.0625 -4.1875 C 7.925781 -4.175781 7.710938 -4.171875 7.421875 -4.171875 L 4.140625 -4.171875 L 4.140625 0 L 1.8125 0 L 1.8125 -13.828125 L 7.421875 -13.828125 C 9.191406 -13.828125 10.5625 -13.414062 11.53125 -12.59375 C 12.507812 -11.769531 13 -10.609375 13 -9.109375 C 13 -8.003906 12.75 -7.066406 12.25 -6.296875 C 11.757812 -5.535156 11.050781 -4.976562 10.125 -4.625 L 13.234375 0 Z M 4.140625 -6.265625 L 7.421875 -6.265625 C 9.660156 -6.265625 10.78125 -7.191406 10.78125 -9.046875 C 10.78125 -10.835938 9.660156 -11.734375 7.421875 -11.734375 L 4.140625 -11.734375 Z M 4.140625 -6.265625 "/></g></g></g><g fill="#ffffff" fill-opacity="1"><g transform="translate(179.697269, 298.353993)"><g><path d="M 13.5625 -13.828125 L 13.5625 -5.734375 C 13.5625 -3.921875 13.03125 -2.492188 11.96875 -1.453125 C 10.90625 -0.421875 9.4375 0.09375 7.5625 0.09375 C 5.695312 0.09375 4.226562 -0.421875 3.15625 -1.453125 C 2.082031 -2.492188 1.546875 -3.921875 1.546875 -5.734375 L 1.546875 -13.828125 L 3.875 -13.828125 L 3.875 -5.734375 C 3.875 -4.566406 4.203125 -3.648438 4.859375 -2.984375 C 5.523438 -2.328125 6.429688 -2 7.578125 -2 C 8.710938 -2 9.601562 -2.328125 10.25 -2.984375 C 10.90625 -3.640625 11.234375 -4.554688 11.234375 -5.734375 L 11.234375 -13.828125 Z M 13.5625 -13.828125 "/></g></g></g><g fill="#ffffff" fill-opacity="1"><g transform="translate(198.933116, 298.353993)"><g><path d="M 7.9375 -13.890625 C 8.914062 -13.890625 9.867188 -13.703125 10.796875 -13.328125 C 11.722656 -12.953125 12.519531 -12.425781 13.1875 -11.75 L 11.828125 -10.046875 C 11.328125 -10.585938 10.734375 -11.015625 10.046875 -11.328125 C 9.367188 -11.648438 8.679688 -11.8125 7.984375 -11.8125 C 6.597656 -11.8125 5.425781 -11.335938 4.46875 -10.390625 C 3.519531 -9.453125 3.046875 -8.304688 3.046875 -6.953125 C 3.046875 -5.578125 3.519531 -4.421875 4.46875 -3.484375 C 5.425781 -2.546875 6.597656 -2.078125 7.984375 -2.078125 C 9.410156 -2.078125 10.691406 -2.625 11.828125 -3.71875 L 13.21875 -2.171875 C 12.5 -1.472656 11.664062 -0.921875 10.71875 -0.515625 C 9.769531 -0.109375 8.816406 0.09375 7.859375 0.09375 C 5.828125 0.09375 4.117188 -0.578125 2.734375 -1.921875 C 1.359375 -3.273438 0.671875 -4.945312 0.671875 -6.9375 C 0.671875 -8.894531 1.367188 -10.539062 2.765625 -11.875 C 4.171875 -13.21875 5.894531 -13.890625 7.9375 -13.890625 Z M 7.9375 -13.890625 "/></g></g></g><g fill="#ffffff" fill-opacity="1"><g transform="translate(216.84598, 298.353993)"><g><path d="M 11.25 -11.734375 L 6.875 -11.734375 L 6.875 0 L 4.546875 0 L 4.546875 -11.734375 L 0.171875 -11.734375 L 0.171875 -13.828125 L 11.25 -13.828125 Z M 11.25 -11.734375 "/></g></g></g><g fill="#ffffff" fill-opacity="1"><g transform="translate(232.428804, 298.353993)"><g><path d="M 4.140625 0 L 1.8125 0 L 1.8125 -13.828125 L 4.140625 -13.828125 Z M 4.140625 0 "/></g></g></g><g fill="#ffffff" fill-opacity="1"><g transform="translate(242.54197, 298.353993)"><g><path d="M 2.78125 -11.875 C 4.1875 -13.21875 5.921875 -13.890625 7.984375 -13.890625 C 10.054688 -13.890625 11.796875 -13.21875 13.203125 -11.875 C 14.617188 -10.539062 15.328125 -8.882812 15.328125 -6.90625 C 15.328125 -4.9375 14.617188 -3.273438 13.203125 -1.921875 C 11.796875 -0.578125 10.054688 0.09375 7.984375 0.09375 C 5.921875 0.09375 4.1875 -0.578125 2.78125 -1.921875 C 1.375 -3.273438 0.671875 -4.9375 0.671875 -6.90625 C 0.671875 -8.882812 1.375 -10.539062 2.78125 -11.875 Z M 8.015625 -11.796875 C 6.648438 -11.796875 5.476562 -11.320312 4.5 -10.375 C 3.53125 -9.4375 3.046875 -8.28125 3.046875 -6.90625 C 3.046875 -5.539062 3.535156 -4.378906 4.515625 -3.421875 C 5.492188 -2.472656 6.660156 -2 8.015625 -2 C 9.367188 -2 10.523438 -2.472656 11.484375 -3.421875 C 12.453125 -4.378906 12.9375 -5.539062 12.9375 -6.90625 C 12.9375 -8.28125 12.453125 -9.4375 11.484375 -10.375 C 10.523438 -11.320312 9.367188 -11.796875 8.015625 -11.796875 Z M 8.015625 -11.796875 "/></g></g></g><g fill="#ffffff" fill-opacity="1"><g transform="translate(262.686134, 298.353993)"><g><path d="M 13.8125 0 L 11.515625 0 L 4.140625 -9.921875 L 4.140625 0 L 1.8125 0 L 1.8125 -13.828125 L 4.109375 -13.828125 L 11.515625 -3.890625 L 11.515625 -13.828125 L 13.8125 -13.828125 Z M 13.8125 0 "/></g></g></g><g fill="#ffffff" fill-opacity="1"><g transform="translate(282.47489, 298.353993)"><g/></g></g><g fill="#ffffff" fill-opacity="1"><g transform="translate(291.719244, 298.353993)"><g><path d="M 7.9375 -13.890625 C 8.914062 -13.890625 9.867188 -13.703125 10.796875 -13.328125 C 11.722656 -12.953125 12.519531 -12.425781 13.1875 -11.75 L 11.828125 -10.046875 C 11.328125 -10.585938 10.734375 -11.015625 10.046875 -11.328125 C 9.367188 -11.648438 8.679688 -11.8125 7.984375 -11.8125 C 6.597656 -11.8125 5.425781 -11.335938 4.46875 -10.390625 C 3.519531 -9.453125 3.046875 -8.304688 3.046875 -6.953125 C 3.046875 -5.578125 3.519531 -4.421875 4.46875 -3.484375 C 5.425781 -2.546875 6.597656 -2.078125 7.984375 -2.078125 C 9.410156 -2.078125 10.691406 -2.625 11.828125 -3.71875 L 13.21875 -2.171875 C 12.5 -1.472656 11.664062 -0.921875 10.71875 -0.515625 C 9.769531 -0.109375 8.816406 0.09375 7.859375 0.09375 C 5.828125 0.09375 4.117188 -0.578125 2.734375 -1.921875 C 1.359375 -3.273438 0.671875 -4.945312 0.671875 -6.9375 C 0.671875 -8.894531 1.367188 -10.539062 2.765625 -11.875 C 4.171875 -13.21875 5.894531 -13.890625 7.9375 -13.890625 Z M 7.9375 -13.890625 "/></g></g></g><g fill="#ffffff" fill-opacity="1"><g transform="translate(309.632107, 298.353993)"><g><path d="M 2.78125 -11.875 C 4.1875 -13.21875 5.921875 -13.890625 7.984375 -13.890625 C 10.054688 -13.890625 11.796875 -13.21875 13.203125 -11.875 C 14.617188 -10.539062 15.328125 -8.882812 15.328125 -6.90625 C 15.328125 -4.9375 14.617188 -3.273438 13.203125 -1.921875 C 11.796875 -0.578125 10.054688 0.09375 7.984375 0.09375 C 5.921875 0.09375 4.1875 -0.578125 2.78125 -1.921875 C 1.375 -3.273438 0.671875 -4.9375 0.671875 -6.90625 C 0.671875 -8.882812 1.375 -10.539062 2.78125 -11.875 Z M 8.015625 -11.796875 C 6.648438 -11.796875 5.476562 -11.320312 4.5 -10.375 C 3.53125 -9.4375 3.046875 -8.28125 3.046875 -6.90625 C 3.046875 -5.539062 3.535156 -4.378906 4.515625 -3.421875 C 5.492188 -2.472656 6.660156 -2 8.015625 -2 C 9.367188 -2 10.523438 -2.472656 11.484375 -3.421875 C 12.453125 -4.378906 12.9375 -5.539062 12.9375 -6.90625 C 12.9375 -8.28125 12.453125 -9.4375 11.484375 -10.375 C 10.523438 -11.320312 9.367188 -11.796875 8.015625 -11.796875 Z M 8.015625 -11.796875 "/></g></g></g><g fill="#ffffff" fill-opacity="1"><g transform="translate(329.776271, 298.353993)"><g><path d="M 10.59375 0 L 8.0625 -4.1875 C 7.925781 -4.175781 7.710938 -4.171875 7.421875 -4.171875 L 4.140625 -4.171875 L 4.140625 0 L 1.8125 0 L 1.8125 -13.828125 L 7.421875 -13.828125 C 9.191406 -13.828125 10.5625 -13.414062 11.53125 -12.59375 C 12.507812 -11.769531 13 -10.609375 13 -9.109375 C 13 -8.003906 12.75 -7.066406 12.25 -6.296875 C 11.757812 -5.535156 11.050781 -4.976562 10.125 -4.625 L 13.234375 0 Z M 4.140625 -6.265625 L 7.421875 -6.265625 C 9.660156 -6.265625 10.78125 -7.191406 10.78125 -9.046875 C 10.78125 -10.835938 9.660156 -11.734375 7.421875 -11.734375 L 4.140625 -11.734375 Z M 4.140625 -6.265625 "/></g></g></g><g fill="#ffffff" fill-opacity="1"><g transform="translate(348.202517, 298.353993)"><g><path d="M 1.8125 -13.828125 L 7.328125 -13.828125 C 9.066406 -13.828125 10.410156 -13.414062 11.359375 -12.59375 C 12.316406 -11.769531 12.796875 -10.609375 12.796875 -9.109375 C 12.796875 -7.535156 12.316406 -6.316406 11.359375 -5.453125 C 10.410156 -4.597656 9.066406 -4.171875 7.328125 -4.171875 L 4.140625 -4.171875 L 4.140625 0 L 1.8125 0 Z M 4.140625 -11.734375 L 4.140625 -6.265625 L 7.234375 -6.265625 C 9.453125 -6.265625 10.5625 -7.191406 10.5625 -9.046875 C 10.5625 -10.835938 9.453125 -11.734375 7.234375 -11.734375 Z M 4.140625 -11.734375 "/></g></g></g><g fill="#ffffff" fill-opacity="1"><g transform="translate(365.64148, 298.353993)"><g><path d="M 1.265625 -2.0625 C 1.503906 -2.300781 1.800781 -2.421875 2.15625 -2.421875 C 2.507812 -2.421875 2.800781 -2.300781 3.03125 -2.0625 C 3.269531 -1.820312 3.390625 -1.515625 3.390625 -1.140625 C 3.390625 -0.765625 3.269531 -0.453125 3.03125 -0.203125 C 2.800781 0.046875 2.507812 0.171875 2.15625 0.171875 C 1.800781 0.171875 1.503906 0.046875 1.265625 -0.203125 C 1.023438 -0.453125 0.90625 -0.765625 0.90625 -1.140625 C 0.90625 -1.515625 1.023438 -1.820312 1.265625 -2.0625 Z M 1.265625 -2.0625 "/></g></g></g></svg>