<svg xmlns="http://www.w3.org/2000/svg" xmlns:xlink="http://www.w3.org/1999/xlink" zoomAndPan="magnify" preserveAspectRatio="xMidYMid meet" version="1.0" viewBox="9 64.3 360.22 246.7"><defs><g/><clipPath id="6980be6b35"><path d="M 9 64.296875 L 304.382812 64.296875 L 304.382812 311 L 9 311 Z M 9 64.296875 " clip-rule="nonzero"/></clipPath></defs><path fill="#004aad" d="M 163.722656 141.730469 L 176.460938 141.730469 L 176.460938 128.601562 C 176.582031 128.601562 164.324219 129.324219 163.722656 141.730469 Z M 163.722656 141.730469 " fill-opacity="1" fill-rule="nonzero"/><path fill="#004aad" d="M 163.722656 144.859375 L 176.582031 144.859375 L 176.582031 157.867188 L 163.722656 157.867188 Z M 163.722656 144.859375 " fill-opacity="1" fill-rule="nonzero"/><path fill="#004aad" d="M 178.984375 128.601562 L 178.984375 141.730469 L 191.722656 141.730469 C 191.242188 129.324219 178.984375 128.601562 178.984375 128.601562 Z M 178.984375 128.601562 " fill-opacity="1" fill-rule="nonzero"/><path fill="#004aad" d="M 178.984375 144.859375 L 191.84375 144.859375 L 191.84375 157.867188 L 178.984375 157.867188 Z M 178.984375 144.859375 " fill-opacity="1" fill-rule="nonzero"/><g clip-path="url(#6980be6b35)"><path fill="#004aad" d="M 180.066406 64.296875 L 146.054688 106.445312 L 146.054688 90.550781 L 133.4375 90.550781 L 133.4375 122.101562 L 98.105469 165.8125 L 177.664062 107.527344 L 286.183594 188.332031 C 187.398438 157.625 63.734375 173.882812 22.996094 219.402344 C -23.394531 274.679688 61.089844 310.925781 61.089844 310.925781 C 23.355469 278.050781 24.917969 245.898438 46.910156 224.460938 C 79.597656 194.355469 119.015625 188.332031 138.363281 184.480469 C 221.527344 170.027344 284.140625 191.222656 296.515625 195.921875 L 297.238281 196.402344 C 143.414062 158.710938 75.390625 215.308594 75.390625 215.308594 C 189.320312 165.8125 304.089844 201.699219 304.089844 201.699219 Z M 180.066406 64.296875 " fill-opacity="1" fill-rule="nonzero"/></g><g fill="#545454" fill-opacity="1"><g transform="translate(66.470201, 262.908977)"><g><path d="M 3.171875 -29.410156 L 3.988281 -28.511719 L 3.945312 -3 C 3.945312 -1.585938 3.300781 -0.859375 2.273438 -0.859375 L 2.273438 0 L 6.902344 0 L 6.902344 -0.859375 C 5.875 -0.859375 5.230469 -1.585938 5.230469 -3 L 5.101562 -27.269531 L 29.152344 0 L 30.011719 0 L 30.3125 -29.453125 C 30.441406 -30.699219 31.039062 -31.296875 32.027344 -31.296875 L 32.027344 -32.15625 L 27.394531 -32.15625 L 27.394531 -31.296875 C 28.425781 -31.296875 29.070312 -30.570312 29.070312 -29.152344 L 29.113281 -6.515625 L 6.089844 -32.113281 L -0.171875 -32.113281 L -0.171875 -31.296875 C 0.898438 -31.296875 1.972656 -30.65625 3.171875 -29.410156 Z M 3.171875 -29.410156 "/></g></g></g><g fill="#545454" fill-opacity="1"><g transform="translate(106.291392, 262.908977)"><g><path d="M 31.941406 0 L 31.941406 -1.070312 L 31.597656 -1.070312 C 30.570312 -1.070312 29.113281 -2.871094 28.167969 -5.359375 L 18.265625 -30.871094 C 18.265625 -30.871094 17.707031 -33.011719 17.449219 -33.011719 L 17.019531 -33.011719 C 17.191406 -32.027344 15.90625 -31.125 13.976562 -30.871094 L 14.148438 -30.441406 L 4.714844 -5.359375 C 3.773438 -2.871094 1.757812 -1.070312 -0.128906 -1.070312 L -0.730469 -1.070312 L -0.730469 0 L 6.816406 0 L 6.816406 -1.070312 L 6.300781 -1.070312 C 4.628906 -1.070312 4.074219 -2.871094 5.015625 -5.359375 L 7.71875 -12.5625 L 20.964844 -12.5625 C 21.867188 -10.160156 22.808594 -7.71875 23.667969 -5.359375 C 24.609375 -2.871094 24.09375 -1.070312 22.421875 -1.070312 L 21.910156 -1.070312 L 21.910156 0 Z M 7.804688 -12.863281 L 14.234375 -30.140625 L 20.792969 -12.863281 Z M 7.804688 -12.863281 "/></g></g></g><g fill="#545454" fill-opacity="1"><g transform="translate(143.883454, 262.908977)"><g><path d="M 27.269531 0 L 34.898438 0 L 34.898438 -0.859375 C 33.871094 -0.859375 33.226562 -1.585938 33.226562 -3 L 33.226562 -29.152344 C 33.226562 -30.570312 33.871094 -31.296875 34.898438 -31.296875 L 34.898438 -32.15625 L 27.269531 -32.15625 L 27.269531 -31.296875 C 28.296875 -31.296875 28.941406 -30.570312 28.941406 -29.152344 L 28.941406 -16.722656 L 10.074219 -16.722656 L 10.074219 -29.152344 C 10.074219 -30.570312 10.71875 -31.296875 11.746094 -31.296875 L 11.746094 -32.15625 L 4.117188 -32.15625 L 4.117188 -31.296875 C 5.144531 -31.296875 5.789062 -30.570312 5.789062 -29.152344 L 5.789062 -3 C 5.789062 -1.585938 5.144531 -0.859375 4.117188 -0.859375 L 4.117188 0 L 11.746094 0 L 11.746094 -0.859375 C 10.71875 -0.859375 10.074219 -1.585938 10.074219 -3 L 10.074219 -16.421875 L 28.941406 -16.421875 L 28.941406 -3 C 28.941406 -1.585938 28.296875 -0.859375 27.269531 -0.859375 Z M 27.269531 0 "/></g></g></g><g fill="#545454" fill-opacity="1"><g transform="translate(186.619667, 262.908977)"><g><path d="M 31.941406 0 L 31.941406 -1.070312 L 31.597656 -1.070312 C 30.570312 -1.070312 29.113281 -2.871094 28.167969 -5.359375 L 18.265625 -30.871094 C 18.265625 -30.871094 17.707031 -33.011719 17.449219 -33.011719 L 17.019531 -33.011719 C 17.191406 -32.027344 15.90625 -31.125 13.976562 -30.871094 L 14.148438 -30.441406 L 4.714844 -5.359375 C 3.773438 -2.871094 1.757812 -1.070312 -0.128906 -1.070312 L -0.730469 -1.070312 L -0.730469 0 L 6.816406 0 L 6.816406 -1.070312 L 6.300781 -1.070312 C 4.628906 -1.070312 4.074219 -2.871094 5.015625 -5.359375 L 7.71875 -12.5625 L 20.964844 -12.5625 C 21.867188 -10.160156 22.808594 -7.71875 23.667969 -5.359375 C 24.609375 -2.871094 24.09375 -1.070312 22.421875 -1.070312 L 21.910156 -1.070312 L 21.910156 0 Z M 7.804688 -12.863281 L 14.234375 -30.140625 L 20.792969 -12.863281 Z M 7.804688 -12.863281 "/></g></g></g><g fill="#545454" fill-opacity="1"><g transform="translate(224.211723, 262.908977)"><g><path d="M 2.574219 -31.296875 C 3.601562 -31.296875 4.246094 -30.570312 4.246094 -29.152344 L 4.246094 -3 C 4.246094 -1.585938 3.601562 -0.859375 2.574219 -0.859375 L 2.574219 0 L 10.203125 0 L 10.203125 -0.859375 C 9.175781 -0.859375 8.53125 -1.585938 8.53125 -3 L 8.53125 -15.21875 L 16.636719 -15.21875 C 17.492188 -13.589844 20.40625 -9.003906 24.179688 -3.429688 C 26.324219 -0.257812 27.054688 0 34.46875 0 L 34.46875 -0.859375 C 31.167969 -0.859375 30.785156 -1.027344 29.195312 -3.429688 C 25.382812 -9.132812 22.335938 -13.675781 21.050781 -15.5625 C 25.808594 -16.464844 28.984375 -18.949219 28.984375 -23.066406 C 28.984375 -28.339844 23.878906 -32.15625 16.847656 -32.15625 L 2.617188 -32.15625 Z M 8.574219 -31.296875 L 15.5625 -31.296875 C 20.578125 -31.296875 24.222656 -28.210938 24.222656 -23.921875 C 24.222656 -18.820312 21.136719 -16.292969 16.847656 -16.292969 L 8.574219 -16.292969 Z M 8.574219 -31.296875 "/></g></g></g><g fill="#a6a6a6" fill-opacity="1"><g transform="translate(71.410509, 297.865228)"><g><path d="M 7.953125 -13.890625 C 8.921875 -13.890625 9.867188 -13.703125 10.796875 -13.328125 C 11.734375 -12.953125 12.535156 -12.429688 13.203125 -11.765625 L 11.84375 -10.0625 C 11.34375 -10.601562 10.75 -11.03125 10.0625 -11.34375 C 9.375 -11.65625 8.679688 -11.8125 7.984375 -11.8125 C 6.597656 -11.8125 5.425781 -11.34375 4.46875 -10.40625 C 3.519531 -9.46875 3.046875 -8.316406 3.046875 -6.953125 C 3.046875 -5.585938 3.519531 -4.429688 4.46875 -3.484375 C 5.425781 -2.546875 6.597656 -2.078125 7.984375 -2.078125 C 9.421875 -2.078125 10.707031 -2.625 11.84375 -3.71875 L 13.21875 -2.171875 C 12.507812 -1.472656 11.679688 -0.921875 10.734375 -0.515625 C 9.785156 -0.109375 8.828125 0.09375 7.859375 0.09375 C 5.835938 0.09375 4.132812 -0.578125 2.75 -1.921875 C 1.363281 -3.273438 0.671875 -4.945312 0.671875 -6.9375 C 0.671875 -8.894531 1.367188 -10.539062 2.765625 -11.875 C 4.171875 -13.21875 5.898438 -13.890625 7.953125 -13.890625 Z M 7.953125 -13.890625 "/></g></g></g><g fill="#a6a6a6" fill-opacity="1"><g transform="translate(89.334047, 297.865228)"><g><path d="M 2.78125 -11.875 C 4.195312 -13.21875 5.9375 -13.890625 8 -13.890625 C 10.070312 -13.890625 11.8125 -13.21875 13.21875 -11.875 C 14.632812 -10.539062 15.34375 -8.882812 15.34375 -6.90625 C 15.34375 -4.9375 14.632812 -3.273438 13.21875 -1.921875 C 11.8125 -0.578125 10.070312 0.09375 8 0.09375 C 5.9375 0.09375 4.195312 -0.578125 2.78125 -1.921875 C 1.375 -3.273438 0.671875 -4.9375 0.671875 -6.90625 C 0.671875 -8.882812 1.375 -10.539062 2.78125 -11.875 Z M 8.03125 -11.796875 C 6.65625 -11.796875 5.476562 -11.320312 4.5 -10.375 C 3.53125 -9.4375 3.046875 -8.28125 3.046875 -6.90625 C 3.046875 -5.539062 3.535156 -4.378906 4.515625 -3.421875 C 5.492188 -2.472656 6.660156 -2 8.015625 -2 C 9.378906 -2 10.539062 -2.472656 11.5 -3.421875 C 12.46875 -4.378906 12.953125 -5.539062 12.953125 -6.90625 C 12.953125 -8.28125 12.46875 -9.4375 11.5 -10.375 C 10.539062 -11.320312 9.382812 -11.796875 8.03125 -11.796875 Z M 8.03125 -11.796875 "/></g></g></g><g fill="#a6a6a6" fill-opacity="1"><g transform="translate(109.490608, 297.865228)"><g><path d="M 13.8125 0 L 11.515625 0 L 4.15625 -9.921875 L 4.15625 0 L 1.8125 0 L 1.8125 -13.828125 L 4.109375 -13.828125 L 11.515625 -3.890625 L 11.515625 -13.828125 L 13.8125 -13.828125 Z M 13.8125 0 "/></g></g></g><g fill="#a6a6a6" fill-opacity="1"><g transform="translate(129.291487, 297.865228)"><g><path d="M 6.359375 -13.9375 C 8.148438 -13.9375 9.765625 -13.460938 11.203125 -12.515625 L 10.234375 -10.453125 C 8.828125 -11.304688 7.476562 -11.734375 6.1875 -11.734375 C 5.488281 -11.734375 4.9375 -11.609375 4.53125 -11.359375 C 4.132812 -11.109375 3.9375 -10.753906 3.9375 -10.296875 C 3.9375 -9.835938 4.117188 -9.445312 4.484375 -9.125 C 4.859375 -8.800781 5.320312 -8.5625 5.875 -8.40625 C 6.425781 -8.257812 7.023438 -8.066406 7.671875 -7.828125 C 8.316406 -7.597656 8.914062 -7.351562 9.46875 -7.09375 C 10.019531 -6.84375 10.476562 -6.441406 10.84375 -5.890625 C 11.207031 -5.347656 11.390625 -4.6875 11.390625 -3.90625 C 11.390625 -2.695312 10.90625 -1.726562 9.9375 -1 C 8.96875 -0.28125 7.710938 0.078125 6.171875 0.078125 C 5.109375 0.078125 4.082031 -0.117188 3.09375 -0.515625 C 2.113281 -0.910156 1.253906 -1.441406 0.515625 -2.109375 L 1.515625 -4.125 C 2.210938 -3.476562 2.976562 -2.976562 3.8125 -2.625 C 4.65625 -2.28125 5.453125 -2.109375 6.203125 -2.109375 C 7.023438 -2.109375 7.660156 -2.253906 8.109375 -2.546875 C 8.566406 -2.847656 8.796875 -3.265625 8.796875 -3.796875 C 8.796875 -4.265625 8.609375 -4.660156 8.234375 -4.984375 C 7.867188 -5.304688 7.410156 -5.539062 6.859375 -5.6875 C 6.304688 -5.84375 5.707031 -6.03125 5.0625 -6.25 C 4.414062 -6.46875 3.816406 -6.695312 3.265625 -6.9375 C 2.710938 -7.1875 2.25 -7.582031 1.875 -8.125 C 1.507812 -8.664062 1.328125 -9.316406 1.328125 -10.078125 C 1.328125 -11.253906 1.785156 -12.191406 2.703125 -12.890625 C 3.628906 -13.585938 4.847656 -13.9375 6.359375 -13.9375 Z M 6.359375 -13.9375 "/></g></g></g><g fill="#a6a6a6" fill-opacity="1"><g transform="translate(145.732916, 297.865228)"><g><path d="M 11.265625 -11.734375 L 6.875 -11.734375 L 6.875 0 L 4.546875 0 L 4.546875 -11.734375 L 0.171875 -11.734375 L 0.171875 -13.828125 L 11.265625 -13.828125 Z M 11.265625 -11.734375 "/></g></g></g><g fill="#a6a6a6" fill-opacity="1"><g transform="translate(161.324602, 297.865228)"><g><path d="M 10.59375 0 L 8.0625 -4.1875 C 7.925781 -4.175781 7.71875 -4.171875 7.4375 -4.171875 L 4.15625 -4.171875 L 4.15625 0 L 1.8125 0 L 1.8125 -13.828125 L 7.4375 -13.828125 C 9.195312 -13.828125 10.5625 -13.414062 11.53125 -12.59375 C 12.507812 -11.769531 13 -10.609375 13 -9.109375 C 13 -8.003906 12.75 -7.066406 12.25 -6.296875 C 11.757812 -5.535156 11.054688 -4.976562 10.140625 -4.625 L 13.25 0 Z M 4.15625 -6.265625 L 7.4375 -6.265625 C 9.675781 -6.265625 10.796875 -7.191406 10.796875 -9.046875 C 10.796875 -10.835938 9.675781 -11.734375 7.4375 -11.734375 L 4.15625 -11.734375 Z M 4.15625 -6.265625 "/></g></g></g><g fill="#a6a6a6" fill-opacity="1"><g transform="translate(179.761926, 297.865228)"><g><path d="M 13.578125 -13.828125 L 13.578125 -5.734375 C 13.578125 -3.929688 13.039062 -2.507812 11.96875 -1.46875 C 10.90625 -0.425781 9.4375 0.09375 7.5625 0.09375 C 5.695312 0.09375 4.226562 -0.425781 3.15625 -1.46875 C 2.082031 -2.507812 1.546875 -3.929688 1.546875 -5.734375 L 1.546875 -13.828125 L 3.875 -13.828125 L 3.875 -5.734375 C 3.875 -4.578125 4.207031 -3.664062 4.875 -3 C 5.539062 -2.332031 6.445312 -2 7.59375 -2 C 8.726562 -2 9.617188 -2.328125 10.265625 -2.984375 C 10.921875 -3.640625 11.25 -4.554688 11.25 -5.734375 L 11.25 -13.828125 Z M 13.578125 -13.828125 "/></g></g></g><g fill="#a6a6a6" fill-opacity="1"><g transform="translate(199.009461, 297.865228)"><g><path d="M 7.953125 -13.890625 C 8.921875 -13.890625 9.867188 -13.703125 10.796875 -13.328125 C 11.734375 -12.953125 12.535156 -12.429688 13.203125 -11.765625 L 11.84375 -10.0625 C 11.34375 -10.601562 10.75 -11.03125 10.0625 -11.34375 C 9.375 -11.65625 8.679688 -11.8125 7.984375 -11.8125 C 6.597656 -11.8125 5.425781 -11.34375 4.46875 -10.40625 C 3.519531 -9.46875 3.046875 -8.316406 3.046875 -6.953125 C 3.046875 -5.585938 3.519531 -4.429688 4.46875 -3.484375 C 5.425781 -2.546875 6.597656 -2.078125 7.984375 -2.078125 C 9.421875 -2.078125 10.707031 -2.625 11.84375 -3.71875 L 13.21875 -2.171875 C 12.507812 -1.472656 11.679688 -0.921875 10.734375 -0.515625 C 9.785156 -0.109375 8.828125 0.09375 7.859375 0.09375 C 5.835938 0.09375 4.132812 -0.578125 2.75 -1.921875 C 1.363281 -3.273438 0.671875 -4.945312 0.671875 -6.9375 C 0.671875 -8.894531 1.367188 -10.539062 2.765625 -11.875 C 4.171875 -13.21875 5.898438 -13.890625 7.953125 -13.890625 Z M 7.953125 -13.890625 "/></g></g></g><g fill="#a6a6a6" fill-opacity="1"><g transform="translate(216.933004, 297.865228)"><g><path d="M 11.265625 -11.734375 L 6.875 -11.734375 L 6.875 0 L 4.546875 0 L 4.546875 -11.734375 L 0.171875 -11.734375 L 0.171875 -13.828125 L 11.265625 -13.828125 Z M 11.265625 -11.734375 "/></g></g></g><g fill="#a6a6a6" fill-opacity="1"><g transform="translate(232.524697, 297.865228)"><g><path d="M 4.15625 0 L 1.8125 0 L 1.8125 -13.828125 L 4.15625 -13.828125 Z M 4.15625 0 "/></g></g></g><g fill="#a6a6a6" fill-opacity="1"><g transform="translate(242.642481, 297.865228)"><g><path d="M 2.78125 -11.875 C 4.195312 -13.21875 5.9375 -13.890625 8 -13.890625 C 10.070312 -13.890625 11.8125 -13.21875 13.21875 -11.875 C 14.632812 -10.539062 15.34375 -8.882812 15.34375 -6.90625 C 15.34375 -4.9375 14.632812 -3.273438 13.21875 -1.921875 C 11.8125 -0.578125 10.070312 0.09375 8 0.09375 C 5.9375 0.09375 4.195312 -0.578125 2.78125 -1.921875 C 1.375 -3.273438 0.671875 -4.9375 0.671875 -6.90625 C 0.671875 -8.882812 1.375 -10.539062 2.78125 -11.875 Z M 8.03125 -11.796875 C 6.65625 -11.796875 5.476562 -11.320312 4.5 -10.375 C 3.53125 -9.4375 3.046875 -8.28125 3.046875 -6.90625 C 3.046875 -5.539062 3.535156 -4.378906 4.515625 -3.421875 C 5.492188 -2.472656 6.660156 -2 8.015625 -2 C 9.378906 -2 10.539062 -2.472656 11.5 -3.421875 C 12.46875 -4.378906 12.953125 -5.539062 12.953125 -6.90625 C 12.953125 -8.28125 12.46875 -9.4375 11.5 -10.375 C 10.539062 -11.320312 9.382812 -11.796875 8.03125 -11.796875 Z M 8.03125 -11.796875 "/></g></g></g><g fill="#a6a6a6" fill-opacity="1"><g transform="translate(262.799036, 297.865228)"><g><path d="M 13.8125 0 L 11.515625 0 L 4.15625 -9.921875 L 4.15625 0 L 1.8125 0 L 1.8125 -13.828125 L 4.109375 -13.828125 L 11.515625 -3.890625 L 11.515625 -13.828125 L 13.8125 -13.828125 Z M 13.8125 0 "/></g></g></g><g fill="#a6a6a6" fill-opacity="1"><g transform="translate(282.599921, 297.865228)"><g/></g></g><g fill="#a6a6a6" fill-opacity="1"><g transform="translate(291.848224, 297.865228)"><g><path d="M 7.953125 -13.890625 C 8.921875 -13.890625 9.867188 -13.703125 10.796875 -13.328125 C 11.734375 -12.953125 12.535156 -12.429688 13.203125 -11.765625 L 11.84375 -10.0625 C 11.34375 -10.601562 10.75 -11.03125 10.0625 -11.34375 C 9.375 -11.65625 8.679688 -11.8125 7.984375 -11.8125 C 6.597656 -11.8125 5.425781 -11.34375 4.46875 -10.40625 C 3.519531 -9.46875 3.046875 -8.316406 3.046875 -6.953125 C 3.046875 -5.585938 3.519531 -4.429688 4.46875 -3.484375 C 5.425781 -2.546875 6.597656 -2.078125 7.984375 -2.078125 C 9.421875 -2.078125 10.707031 -2.625 11.84375 -3.71875 L 13.21875 -2.171875 C 12.507812 -1.472656 11.679688 -0.921875 10.734375 -0.515625 C 9.785156 -0.109375 8.828125 0.09375 7.859375 0.09375 C 5.835938 0.09375 4.132812 -0.578125 2.75 -1.921875 C 1.363281 -3.273438 0.671875 -4.945312 0.671875 -6.9375 C 0.671875 -8.894531 1.367188 -10.539062 2.765625 -11.875 C 4.171875 -13.21875 5.898438 -13.890625 7.953125 -13.890625 Z M 7.953125 -13.890625 "/></g></g></g><g fill="#a6a6a6" fill-opacity="1"><g transform="translate(309.771768, 297.865228)"><g><path d="M 2.78125 -11.875 C 4.195312 -13.21875 5.9375 -13.890625 8 -13.890625 C 10.070312 -13.890625 11.8125 -13.21875 13.21875 -11.875 C 14.632812 -10.539062 15.34375 -8.882812 15.34375 -6.90625 C 15.34375 -4.9375 14.632812 -3.273438 13.21875 -1.921875 C 11.8125 -0.578125 10.070312 0.09375 8 0.09375 C 5.9375 0.09375 4.195312 -0.578125 2.78125 -1.921875 C 1.375 -3.273438 0.671875 -4.9375 0.671875 -6.90625 C 0.671875 -8.882812 1.375 -10.539062 2.78125 -11.875 Z M 8.03125 -11.796875 C 6.65625 -11.796875 5.476562 -11.320312 4.5 -10.375 C 3.53125 -9.4375 3.046875 -8.28125 3.046875 -6.90625 C 3.046875 -5.539062 3.535156 -4.378906 4.515625 -3.421875 C 5.492188 -2.472656 6.660156 -2 8.015625 -2 C 9.378906 -2 10.539062 -2.472656 11.5 -3.421875 C 12.46875 -4.378906 12.953125 -5.539062 12.953125 -6.90625 C 12.953125 -8.28125 12.46875 -9.4375 11.5 -10.375 C 10.539062 -11.320312 9.382812 -11.796875 8.03125 -11.796875 Z M 8.03125 -11.796875 "/></g></g></g><g fill="#a6a6a6" fill-opacity="1"><g transform="translate(329.928335, 297.865228)"><g><path d="M 10.59375 0 L 8.0625 -4.1875 C 7.925781 -4.175781 7.71875 -4.171875 7.4375 -4.171875 L 4.15625 -4.171875 L 4.15625 0 L 1.8125 0 L 1.8125 -13.828125 L 7.4375 -13.828125 C 9.195312 -13.828125 10.5625 -13.414062 11.53125 -12.59375 C 12.507812 -11.769531 13 -10.609375 13 -9.109375 C 13 -8.003906 12.75 -7.066406 12.25 -6.296875 C 11.757812 -5.535156 11.054688 -4.976562 10.140625 -4.625 L 13.25 0 Z M 4.15625 -6.265625 L 7.4375 -6.265625 C 9.675781 -6.265625 10.796875 -7.191406 10.796875 -9.046875 C 10.796875 -10.835938 9.675781 -11.734375 7.4375 -11.734375 L 4.15625 -11.734375 Z M 4.15625 -6.265625 "/></g></g></g><g fill="#a6a6a6" fill-opacity="1"><g transform="translate(348.365665, 297.865228)"><g><path d="M 1.8125 -13.828125 L 7.328125 -13.828125 C 9.066406 -13.828125 10.414062 -13.414062 11.375 -12.59375 C 12.332031 -11.769531 12.8125 -10.609375 12.8125 -9.109375 C 12.8125 -7.546875 12.332031 -6.332031 11.375 -5.46875 C 10.414062 -4.601562 9.066406 -4.171875 7.328125 -4.171875 L 4.15625 -4.171875 L 4.15625 0 L 1.8125 0 Z M 4.15625 -11.734375 L 4.15625 -6.265625 L 7.234375 -6.265625 C 9.460938 -6.265625 10.578125 -7.191406 10.578125 -9.046875 C 10.578125 -10.835938 9.460938 -11.734375 7.234375 -11.734375 Z M 4.15625 -11.734375 "/></g></g></g><g fill="#a6a6a6" fill-opacity="1"><g transform="translate(365.814923, 297.865228)"><g><path d="M 1.265625 -2.0625 C 1.503906 -2.3125 1.800781 -2.4375 2.15625 -2.4375 C 2.507812 -2.4375 2.804688 -2.3125 3.046875 -2.0625 C 3.285156 -1.820312 3.40625 -1.515625 3.40625 -1.140625 C 3.40625 -0.765625 3.285156 -0.453125 3.046875 -0.203125 C 2.804688 0.046875 2.507812 0.171875 2.15625 0.171875 C 1.800781 0.171875 1.503906 0.046875 1.265625 -0.203125 C 1.023438 -0.453125 0.90625 -0.765625 0.90625 -1.140625 C 0.90625 -1.515625 1.023438 -1.820312 1.265625 -2.0625 Z M 1.265625 -2.0625 "/></g></g></g></svg>